<?xml version="1.0" encoding="UTF-8"?>
<svg width="23px" height="23px" viewBox="0 0 23 23" version="1.1" xmlns="http://www.w3.org/2000/svg" xmlns:xlink="http://www.w3.org/1999/xlink">
    <!-- Generator: Sketch 55.2 (78181) - https://sketchapp.com -->
    <title>Shape</title>
    <desc>Created with Sketch.</desc>
    <g id="Symbols" stroke="none" strokeWidth="1" fill="none" fillRule="evenodd">
        <g id="Budicon-Solid/Travel/bus-front" transform="translate(-1.000000, -1.000000)" fill="#FFFFFF" fillRule="nonzero">
            <path d="M23.5,10.5 L22,10.5 L22,4 C22,3 14.5,1 12.5,1 C10.5,1 3,3 3,4 L3,10.5 L1.5,10.5 C1.22385763,10.5 1,10.7238576 1,11 L1,14 C1,14.1893456 1.10715771,14.3623949 1.2764,14.4473 L3,15.3091 L3,20.5 C3.00122906,21.1338869 3.40192604,21.6981484 4,21.9082 L4,23 C4,23.5522847 4.44771525,24 5,24 L8,24 C8.55228475,24 9,23.5522847 9,23 L9,22 L16,22 L16,23 C16,23.5522847 16.4477153,24 17,24 L20,24 C20.5522847,24 21,23.5522847 21,23 L21,21.9082 C21.598074,21.6981484 21.9987709,21.1338869 22,20.5 L22,15.3091 L23.7236,14.4473 C23.8928423,14.3623949 24,14.1893456 24,14 L24,11 C24,10.7238576 23.7761424,10.5 23.5,10.5 Z M3,14.1912 L2,13.6912 L2,11.5 L3,11.5 L3,14.1912 Z M11.5,4 L13.5,4 C13.7761424,4 14,4.22385763 14,4.5 C14,4.77614237 13.7761424,5 13.5,5 L11.5,5 C11.2238576,5 11,4.77614237 11,4.5 C11,4.22385763 11.2238576,4 11.5,4 Z M7,20 C5.8954305,20 5,19.1045695 5,18 C5,16.8954305 5.8954305,16 7,16 C8.1045695,16 9,16.8954305 9,18 C9,19.1045695 8.1045695,20 7,20 Z M13.5,20 L11.5,20 C11.2238576,20 11,19.7761424 11,19.5 C11,19.2238576 11.2238576,19 11.5,19 L13.5,19 C13.7761424,19 14,19.2238576 14,19.5 C14,19.7761424 13.7761424,20 13.5,20 Z M13.5,18 L11.5,18 C11.2238576,18 11,17.7761424 11,17.5 C11,17.2238576 11.2238576,17 11.5,17 L13.5,17 C13.7761424,17 14,17.2238576 14,17.5 C14,17.7761424 13.7761424,18 13.5,18 Z M18,20 C16.8954305,20 16,19.1045695 16,18 C16,16.8954305 16.8954305,16 18,16 C19.1045695,16 20,16.8954305 20,18 C20,19.1045695 19.1045695,20 18,20 Z M21,14.4053 C18.1916493,13.9028417 15.3511813,13.6003151 12.5,13.5 C9.64881869,13.6003151 6.80835069,13.9028417 4,14.4053 L4,7 L21,7 L21,14.4053 Z M23,13.6914 L22,14.1914 L22,11.5 L23,11.5 L23,13.6914 Z M19,18 C19,18.5522847 18.5522847,19 18,19 C17.4477153,19 17,18.5522847 17,18 C17,17.4477153 17.4477153,17 18,17 C18.5520106,17.0006612 18.9993388,17.4479894 19,18 L19,18 Z M8,18 C8,18.5522847 7.55228475,19 7,19 C6.44771525,19 6,18.5522847 6,18 C6,17.4477153 6.44771525,17 7,17 C7.55201063,17.0006612 7.99933878,17.4479894 8,18 L8,18 Z" id="Shape"></path>
        </g>
    </g>
</svg>