<?xml version="1.0" encoding="UTF-8"?>
<svg width="18px" height="23px" viewBox="0 0 18 23" version="1.1" xmlns="http://www.w3.org/2000/svg" xmlns:xlink="http://www.w3.org/1999/xlink">
    <!-- Generator: Sketch 55.2 (78181) - https://sketchapp.com -->
    <title>Shape</title>
    <desc>Created with Sketch.</desc>
    <g id="Symbols" stroke="none" strokeWidth="1" fill="none" fillRule="evenodd">
        <g id="Budicon-Outline/Business/business-checklist" transform="translate(-1.000000, -1.000000)" fill="#8B959E" fillRule="nonzero">
            <path d="M17.5,1 L2.5,1 C1.67157288,1 1,1.67157288 1,2.5 L1,22.5 C1,23.3284271 1.67157288,24 2.5,24 L17.5,24 C18.3284271,24 19,23.3284271 19,22.5 L19,2.5 C19,1.67157288 18.3284271,1 17.5,1 Z M16,7.5 C16,7.77614237 15.7761424,8 15.5,8 L9.5,8 C9.22385763,8 9,7.77614237 9,7.5 C9,7.22385763 9.22385763,7 9.5,7 L15.5,7 C15.7761424,7 16,7.22385763 16,7.5 Z M7.8535,6.1465 C8.04869097,6.34174993 8.04869097,6.65825007 7.8535,6.8535 L5.8535,8.8535 C5.65825007,9.04869097 5.34174993,9.04869097 5.1465,8.8535 L4.1465,7.8535 C3.9570139,7.65731056 3.95972381,7.34545761 4.15259071,7.15259071 C4.34545761,6.95972381 4.65731056,6.9570139 4.8535,7.1465 L5.5,7.793 L7.1465,6.1465 C7.34174993,5.95130903 7.65825007,5.95130903 7.8535,6.1465 Z M16,12.5 C16,12.7761424 15.7761424,13 15.5,13 L9.5,13 C9.22385763,13 9,12.7761424 9,12.5 C9,12.2238576 9.22385763,12 9.5,12 L15.5,12 C15.7761424,12 16,12.2238576 16,12.5 Z M7.8535,11.1465 C8.04869097,11.3417499 8.04869097,11.6582501 7.8535,11.8535 L5.8535,13.8535 C5.65825007,14.048691 5.34174993,14.048691 5.1465,13.8535 L4.1465,12.8535 C3.9570139,12.6573106 3.95972381,12.3454576 4.15259071,12.1525907 C4.34545761,11.9597238 4.65731056,11.9570139 4.8535,12.1465 L5.5,12.793 L7.1465,11.1465 C7.34174993,10.951309 7.65825007,10.951309 7.8535,11.1465 Z M16,17.5 C16,17.7761424 15.7761424,18 15.5,18 L9.5,18 C9.22385763,18 9,17.7761424 9,17.5 C9,17.2238576 9.22385763,17 9.5,17 L15.5,17 C15.7761424,17 16,17.2238576 16,17.5 Z M7.8535,16.1465 C8.04869097,16.3417499 8.04869097,16.6582501 7.8535,16.8535 L5.8535,18.8535 C5.65825007,19.048691 5.34174993,19.048691 5.1465,18.8535 L4.1465,17.8535 C3.9570139,17.6573106 3.95972381,17.3454576 4.15259071,17.1525907 C4.34545761,16.9597238 4.65731056,16.9570139 4.8535,17.1465 L5.5,17.793 L7.1465,16.1465 C7.34174993,15.951309 7.65825007,15.951309 7.8535,16.1465 Z" id="Shape"></path>
        </g>
    </g>
</svg>