<?xml version="1.0" encoding="UTF-8"?>
<svg width="25px" height="25px" viewBox="0 0 25 25" version="1.1" xmlns="http://www.w3.org/2000/svg" xmlns:xlink="http://www.w3.org/1999/xlink">
    <!-- Generator: Sketch 55.2 (78181) - https://sketchapp.com -->
    <title>Shape</title>
    <desc>Created with Sketch.</desc>
    <g id="Symbols" stroke="none" stroke-width="1" fill="none" fill-rule="evenodd">
        <g id="Budicon-Solid/Interface/alert-sign-a" fill="#FFFFFF" fill-rule="nonzero">
            <path d="M24.5607,4.5605 L20.4393,0.4395 C20.1580364,0.158151438 19.7765269,0 19.3787,0 L5.6213,0 C5.22347313,0 4.8419636,0.158151438 4.5607,0.4395 L0.4393,4.5605 C0.158024781,4.84179634 0,5.22330183 0,5.6211 L0,19.3789 C0,19.7766635 0.158049281,20.1581282 0.4393,20.4394 L4.5606,24.5605 C4.8418881,24.8418731 5.22343847,25 5.6213,25 L19.3787,25 C19.7765615,25 20.1581119,24.8418731 20.4394,24.5605 L24.5607,20.4394 C24.8419507,20.1581282 25,19.7766635 25,19.3789 L25,5.6211 C25,5.22330183 24.8419752,4.84179634 24.5607,4.5605 L24.5607,4.5605 Z M13,17 L12,17 L12,16 L13,16 L13,17 Z M13,14 L12,14 L12,8 L13,8 L13,14 Z" id="Shape"></path>
        </g>
    </g>
</svg>