<?xml version="1.0" encoding="UTF-8"?>
<svg width="25px" height="25px" viewBox="0 0 25 25" version="1.1" xmlns="http://www.w3.org/2000/svg" xmlns:xlink="http://www.w3.org/1999/xlink">
    <!-- Generator: Sketch 55.2 (78181) - https://sketchapp.com -->
    <title>Shape</title>
    <desc>Created with Sketch.</desc>
    <g id="Symbols" stroke="none" strokeWidth="1" fill="none" fillRule="evenodd">
        <g id="Budicon-Solid/Interface/tick-sign" fill="#A8E063" fillRule="nonzero">
            <path d="M12.5,0 C5.59644063,0 0,5.59644063 0,12.5 C0,19.4035594 5.59644063,25 12.5,25 C19.4035594,25 25,19.4035594 25,12.5 C25,9.18479388 23.6830395,6.00536997 21.3388348,3.66116524 C18.99463,1.3169605 15.8152061,0 12.5,0 Z M17.8643,9.8428 L12.2178,15.8428 C12.0312661,16.0409287 11.7205359,16.0535054 11.5186,15.8711 L8.165,12.8462 C8.02918063,12.7273529 7.9679488,12.5445357 8.0047872,12.3678596 C8.04162559,12.1911835 8.1708164,12.0480709 8.34281436,11.9934062 C8.51481232,11.9387415 8.70292105,11.9810095 8.835,12.104 L11.825,14.8008 L17.136,9.1572 C17.2584528,9.027066 17.4410295,8.972145 17.6149552,9.01312522 C17.788881,9.05410544 17.9277323,9.18476101 17.9792052,9.35587523 C18.0306782,9.52698946 17.9869528,9.71256601 17.8645,9.8427 L17.8643,9.8428 Z" id="Shape"></path>
        </g>
    </g>
</svg>