<?xml version="1.0" encoding="UTF-8"?>
<svg width="24px" height="23px" viewBox="0 0 24 23" version="1.1" xmlns="http://www.w3.org/2000/svg" xmlns:xlink="http://www.w3.org/1999/xlink">
    <!-- Generator: Sketch 55.2 (78181) - https://sketchapp.com -->
    <title>Shape</title>
    <desc>Created with Sketch.</desc>
    <g id="Symbols" stroke="none" strokeWidth="1" fill="none" fillRule="evenodd">
        <g id="Budicon-Solid/Interface/star" transform="translate(-1.000000, 0.000000)" fill="#FFFFFF" fillRule="nonzero">
            <path d="M24.8353306,9.11124065 L19.0060306,14.3266407 L20.5570306,22.4043407 C20.5930319,22.5922374 20.5186592,22.7842052 20.3654647,22.8988032 C20.2122702,23.0134012 20.0071134,23.0305369 19.8370306,22.9429407 L12.9732306,19.3994407 L6.1086306,22.9400407 C5.93804969,23.0281883 5.73205895,23.0108664 5.57859426,22.8954695 C5.42512957,22.7800726 5.35130302,22.5869874 5.3886306,22.3986407 L6.9856306,14.3321407 L1.1631306,9.11114065 C1.02147336,8.98197614 0.966138022,8.7831897 1.02068214,8.59940944 C1.07522627,8.41562919 1.23004588,8.27921461 1.4192306,8.24824065 L9.0937306,7.00924065 L12.5555306,0.27124065 C12.6412268,0.104687743 12.8128241,0 13.0001306,0 C13.1874371,0 13.3590344,0.104687743 13.4447306,0.27124065 L16.9064306,7.00924065 L24.5792306,8.24804065 C24.7685505,8.27892677 24.9235111,8.4154008 24.9780717,8.59930051 C25.0326323,8.78320022 24.9771735,8.98210293 24.8353306,9.11124065 Z" id="Shape"></path>
        </g>
    </g>
</svg>