<?xml version="1.0" encoding="UTF-8"?>
<svg width="25px" height="25px" viewBox="0 0 25 25" version="1.1" xmlns="http://www.w3.org/2000/svg" xmlns:xlink="http://www.w3.org/1999/xlink">
    <!-- Generator: Sketch 55.2 (78181) - https://sketchapp.com -->
    <title>Shape</title>
    <desc>Created with Sketch.</desc>
    <g id="Symbols" stroke="none" strokeWidth="1" fill="none" fillRule="evenodd">
        <g id="Budicon-Solid/Interface/plus-ui" fill="#8B959E" fillRule="nonzero">
            <path d="M25,12.5 C25,12.9060917 24.6707976,13.2352941 24.2647059,13.2352941 L13.2352941,13.2352941 L13.2352941,24.2647059 C13.2352941,24.6707976 12.9060917,25 12.5,25 C12.0939083,25 11.7647059,24.6707976 11.7647059,24.2647059 L11.7647059,13.2352941 L0.735294118,13.2352941 C0.32920239,13.2352941 0,12.9060917 0,12.5 C0,12.0939083 0.32920239,11.7647059 0.735294118,11.7647059 L11.7647059,11.7647059 L11.7647059,0.735294118 C11.7647059,0.32920239 12.0939083,0 12.5,0 C12.9060917,0 13.2352941,0.32920239 13.2352941,0.735294118 L13.2352941,11.7647059 L24.2647059,11.7647059 C24.6707976,11.7647059 25,12.0939083 25,12.5 Z" id="Shape"></path>
        </g>
    </g>
</svg>