<?xml version="1.0" encoding="UTF-8"?>
<svg width="17px" height="24px" viewBox="0 0 17 24" version="1.1" xmlns="http://www.w3.org/2000/svg" xmlns:xlink="http://www.w3.org/1999/xlink">
    <!-- Generator: sketchtool 55.2 (78181) - https://sketchapp.com -->
    <title>25BC8B78-CD07-44DE-A5A3-CE8605ECFD81</title>
    <desc>Created with sketchtool.</desc>
    <g id="Instruktor" stroke="none" stroke-width="1" fill="none" fill-rule="evenodd">
        <g id="Termin-obiÄni(2)" transform="translate(-48.000000, -423.000000)" fill="#8B959E" fill-rule="nonzero">
            <g id="Group-8">
                <g id="Group-7" transform="translate(17.000000, 212.000000)">
                    <g id="Group-4" transform="translate(28.000000, 200.000000)">
                        <g id="Group-2">
                            <g id="Budicon-Solid/Time/wall-clock" transform="translate(0.000000, 11.000000)">
                                <path d="M11.5,0 C7.18113326,0 3.68,3.65335642 3.68,8.15999996 C3.68,12.9378239 8.264728,20.5407359 10.412928,23.4407039 C10.6728123,23.7930503 11.074647,23.9996466 11.5007428,23.9999854 C11.9268387,24.0003232 12.3289741,23.7943653 12.589372,23.4424319 C14.73886,20.5500479 19.32,12.9666239 19.32,8.15999996 C19.32,5.99583341 18.4961095,3.92030549 17.029575,2.39000865 C15.5630405,0.859711813 13.573993,0 11.5,0 L11.5,0 Z M11.5,10.56 C9.72164311,10.56 8.28,9.05567676 8.28,7.2 C8.28,5.34432324 9.72164311,3.84 11.5,3.84 C13.2783569,3.84 14.72,5.34432324 14.72,7.2 C14.72,9.05567676 13.2783569,10.56 11.5,10.56 L11.5,10.56 Z" id="Shape"></path>
                            </g>
                        </g>
                    </g>
                </g>
            </g>
        </g>
    </g>
</svg>