<?xml version="1.0" encoding="UTF-8"?>
<svg width="25px" height="23px" viewBox="0 0 25 23" version="1.1" xmlns="http://www.w3.org/2000/svg" xmlns:xlink="http://www.w3.org/1999/xlink">
    <!-- Generator: Sketch 55.2 (78181) - https://sketchapp.com -->
    <title>Shape</title>
    <desc>Created with Sketch.</desc>
    <g id="Symbols" stroke="none" stroke-width="1" fill="none" fill-rule="evenodd">
        <g id="Budicon-Solid/Medical/medical-assistance" transform="translate(0.000000, -1.000000)" fill="#FFFFFF" fill-rule="nonzero">
            <path d="M18.5,1 C15.8035,1 13.6332,3.027 12.5045,4.349 C11.3841,3.025 9.2249,1 6.5,1 C2.6121,1 0,3.813 0,8 C0,15.437 11.4418,23.2658 11.929,23.6047 L12.497,24 L13.067,23.6757 C13.5543,23.34 25,15.5225 25,8 C25,3.813 22.3879,1 18.5,1 Z M17,13.5 C17,13.7761424 16.7761424,14 16.5,14 L14,14 L14,16.5 C14,16.7761424 13.7761424,17 13.5,17 L11.5,17 C11.2238576,17 11,16.7761424 11,16.5 L11,14 L8.5,14 C8.22385763,14 8,13.7761424 8,13.5 L8,11.5 C8,11.2238576 8.22385763,11 8.5,11 L11,11 L11,8.5 C11,8.22385763 11.2238576,8 11.5,8 L13.5,8 C13.7761424,8 14,8.22385763 14,8.5 L14,11 L16.5,11 C16.7761424,11 17,11.2238576 17,11.5 L17,13.5 Z" id="Shape"></path>
        </g>
    </g>
</svg>