<?xml version="1.0" encoding="UTF-8"?>
<svg width="27px" height="27px" viewBox="0 0 27 27" version="1.1" xmlns="http://www.w3.org/2000/svg" xmlns:xlink="http://www.w3.org/1999/xlink">
    <!-- Generator: sketchtool 55.2 (78181) - https://sketchapp.com -->
    <title>B7E7DD05-F104-4D5A-801E-FE0DCA483E2E</title>
    <desc>Created with sketchtool.</desc>
    <g id="Instruktor" stroke="none" stroke-width="1" fill="none" fill-rule="evenodd">
        <g id="Postavke(2)" transform="translate(-37.000000, -419.000000)" fill="#FFFFFF" fill-rule="nonzero">
            <g id="Budicon-Solid/Interface/alert-sign" transform="translate(50.500000, 432.500000) rotate(-180.000000) translate(-50.500000, -432.500000) translate(37.000000, 419.000000)">
                <path d="M13.5,0 C6.04415588,0 0,6.04415588 0,13.5 C0,20.9558441 6.04415588,27 13.5,27 C20.9558441,27 27,20.9558441 27,13.5 C27,9.91957739 25.5776827,6.48579956 23.0459415,3.95405845 C20.5142004,1.42231734 17.0804226,0 13.5,0 Z M14.04,18.36 L12.96,18.36 L12.96,17.28 L14.04,17.28 L14.04,18.36 Z M14.04,15.12 L12.96,15.12 L12.96,8.64 L14.04,8.64 L14.04,15.12 Z" id="Shape"></path>
            </g>
        </g>
    </g>
</svg>