<?xml version="1.0" encoding="UTF-8"?>
<svg width="17px" height="25px" viewBox="0 0 17 25" version="1.1" xmlns="http://www.w3.org/2000/svg" xmlns:xlink="http://www.w3.org/1999/xlink">
    <!-- Generator: Sketch 55.2 (78181) - https://sketchapp.com -->
    <title>Shape</title>
    <desc>Created with Sketch.</desc>
    <g id="Symbols" stroke="none" stroke-width="1" fill="none" fill-rule="evenodd">
        <g id="Budicon-Solid/Interface/lock" transform="translate(-4.000000, 0.000000)" fill="#FFFFFF" fill-rule="nonzero">
            <path d="M19.5,10 L18,10 L18,5.5 C18,2.46243388 15.5375661,0 12.5,0 C9.46243388,0 7,2.46243388 7,5.5 L7,10 L5.5,10 C4.67157288,10 4,10.6715729 4,11.5 L4,23.5 C4,24.3284271 4.67157288,25 5.5,25 L19.5,25 C20.3284271,25 21,24.3284271 21,23.5 L21,11.5 C21,10.6715729 20.3284271,10 19.5,10 Z M14.974,20.3419 C15.0248001,20.4943151 14.999267,20.6618569 14.9053718,20.7922207 C14.8114766,20.9225845 14.6606581,20.9998887 14.5,21 L10.5,21 C10.339289,21 10.1883812,20.9227208 10.0944159,20.7923423 C10.0004507,20.6619638 9.97488319,20.4943653 10.0257,20.3419 L10.872,18.3833 C10.1114094,17.7351722 9.81241245,16.6948661 10.1128,15.7418 C10.3596945,14.9370777 11.0010678,14.3145683 11.8128,14.0918 C12.9408068,13.766267 14.1431471,14.2712978 14.7003524,15.304687 C15.2575577,16.3380763 15.018821,17.6201384 14.127,18.3837 L14.974,20.3419 Z M17,10 L8,10 L8,5.5 C8,3.01471863 10.0147186,1 12.5,1 C14.9852814,1 17,3.01471863 17,5.5 L17,10 Z" id="Shape"></path>
        </g>
    </g>
</svg>