<?xml version="1.0" encoding="utf-8"?>
<!-- Generator: Adobe Illustrator 23.0.4, SVG Export Plug-In . SVG Version: 6.00 Build 0)  -->
<svg version="1.1" id="Layer_1" xmlns="http://www.w3.org/2000/svg" xmlns:xlink="http://www.w3.org/1999/xlink" x="0px" y="0px"
	 viewBox="0 0 1000 232" style="enable-background:new 0 0 1000 232;" xml:space="preserve">
<style type="text/css">
	.st0{fill:#FFFFFF;}
	.st1{fill:url(#SVGID_1_);}
</style>
<path class="st0" d="M131.3,231.7c-2.4,0-4.9-0.2-7.9-0.7c-12.1-2-22-7.9-28.7-17.1c-0.1-0.1-17.4-25.7-17.4-25.7l-3.7,17.7
	c0,0.2-0.1,0.3-0.1,0.5c-4,15.2-16.4,25.1-31.6,25.1c-5.7,0-20.2-1.6-31.7-16.9C2.2,204-0.6,191.8,2,180.2l11.6-54.7L19.8,97
	l14.9-69.4c1.2-7.7,5.2-14.6,11.2-19.5c5.7-4.8,13-7.5,20.7-7.5h65c9.3,0,17.9,1.5,25.8,4.4c8.8,3.3,16.2,8.3,22,14.6
	c5.1,5.6,9,12.2,11.8,19.6c2.8,7,4.3,15,4.3,23.5c0,2.7-0.2,5.4-0.4,8.1c8.1-2.3,16.3-3.5,24.6-3.5c5.8,0,11.6,0.6,17.1,1.8
	c6.1,1.4,11.3,3.4,16.1,6.1c1.9-1.3,4-2.5,6.1-3.4c0,0,3.1-14.6,3.1-14.7c3.8-15.3,16.2-25.1,31.6-25.1c7.1,0,20.8,2.3,31.9,17.4
	c4.6,6.2,7.4,13,8.5,19.9h4c3.1,0,6.1,0.5,9,1.4c4.3-2.2,9.2-3.3,14.4-3.3c5.4,0,14.8,1.3,23.8,8.8c10.3-5.8,20.9-8.8,31.8-8.8
	c8,0,15.5,2.8,21.4,8c11.2-5.3,23.1-8,35.3-8c18.1,0,34.1,6.2,46.3,17.6c5.6-10.8,16.4-17.6,28.9-17.6c7.2,0,20.8,2.3,31.9,17.4
	c1.8,2.4,3.2,4.9,4.5,7.5c3.9-15.1,16.2-24.9,31.4-24.9c3.9,0,9.9,0.7,16.5,3.9c-1.7-5.9-2-12-0.9-18.1l4.3-21.3
	c0-0.2,0.1-0.4,0.2-0.6C640.7,15.9,653,6,668,6c7.2,0,20.9,2.3,31.9,17.4c7.4,10.1,10.2,21.4,8.3,32.6c0,0.1-2.8,13.2-2.8,13.2h55
	c7.3,0,14.2,2.2,20,6.5c2.7,2.1,5.1,4.4,7.1,7c14.9-10.3,31.1-15.5,48.3-15.5c18.3,0,34.5,6.3,46.7,18c5.4-11,16.2-18,28.5-18
	c5.4,0,14.8,1.3,23.8,8.8c10.3-5.8,21-8.8,31.8-8.8c8.9,0,17.3,3.6,23.6,10.2c5.7,6,8.7,13.7,8.7,21.8c0,2.3-0.2,4.6-0.7,6.7
	c-1.5,7.2-5.4,13.8-11.1,18.7c-5.9,5.2-13.2,8.1-21.2,8.4c-1.1,0.6-4.9,2.9-11,10.9c-8.5,11-14.7,25.1-18.3,41.9
	c0,0-4.4,20.2-4.4,20.3c-3.7,15-16.4,25.1-31.6,25.1c-7.3,0-21.1-2.3-32-17.8c-0.5-0.8-1.1-1.6-1.6-2.4
	c-16.5,13.4-34.8,20.2-54.3,20.2c-16,0-30.2-4.6-41.7-13.5c-6.2,7.3-15.5,11.7-26,11.7H683c-5.6,0-11.1-1.4-16.2-4.2
	c-5.4,3.9-12,6.1-19.2,6.1s-20.8-2.3-31.9-17.5c-2.2-2.9-3.9-5.8-5.2-8.7c-18.3,17.3-38.3,26.1-59.8,26.1
	c-17.7,0-32.5-7.6-41.8-21.3c-0.3-0.5-0.6-1-1-1.5c0,0,0,0,0,0c-17.2,15.1-36.6,22.8-57.4,22.8c-23.1,0-42.2-9.5-55.1-27.6
	c-3.7-5.2-6.7-10.7-8.9-16.5c0,0-4.1,18.9-4.1,19c-3.8,15.2-16.2,25.1-31.6,25.1c-4.8,0-15.7-1.2-25.7-10.5
	c-11.3,7-24,10.5-37.8,10.5c-21.6,0-33.9-9-40.6-17.4c-1.2,1-2.5,1.9-3.8,2.9c-13.7,9.6-29.7,14.5-47.4,14.5
	c-14,0-26.8-3.6-37.6-10.4C153.1,225.9,144.4,231.7,131.3,231.7z"/>
<linearGradient id="SVGID_1_" gradientUnits="userSpaceOnUse" x1="211.8431" y1="-154.363" x2="926.1182" y2="559.912" gradientTransform="matrix(1 0 0 -1 0 234)">
	<stop  offset="0.4866" style="stop-color:#1488CC"/>
	<stop  offset="0.9551" style="stop-color:#2B32B2"/>
</linearGradient>
<path class="st1" d="M145.7,191.1c3.4,5.1,2.9,11.1-1.5,15.5c-2.2,2.2-6.3,4.9-12.8,4.9c-1.5,0-3-0.1-4.7-0.4
	c-6.8-1.1-12.1-4.2-15.6-9l-43.7-64.8l-13.6,64.5c-1.5,6-6.1,9.5-11.9,9.5c-4.1,0-10.1-1.6-15.6-8.9c-5.4-7.2-5.5-13.6-4.6-17.8
	l11.7-54.9c0.7-3.1,2.9-5.7,5.8-6.8l35.9-18.7c8.5-4.5,20.5,2.5,40.8-5.9c23.3-9.9,26.6-17.2,28.1-29.7c0.3-2.9,0.1-5.9-0.9-8.6
	c-1.5-3.8-3.5-6.4-7.4-8.2c-15.6-7.4-38.3-4.9-50.4,1.6c-4.7,2.5-8.7,6-11.1,10.9C69,75,79.8,83.5,65.9,92.9
	c-6.2,4.1-15.8,7.3-24.8,9.8c-0.8,0.2-1.6-0.5-1.4-1.3l15-70.3c0.3-3,1.8-5.6,4.1-7.4c2.2-1.9,4.9-2.9,7.9-2.9h65
	c7,0,13.2,1.1,18.7,3.1c5.8,2.2,10.5,5.3,14.1,9.2c3.4,3.8,6.1,8.2,8,13.2c2,5.1,2.9,10.6,2.9,16.3c-0.1,5.2-0.6,10.8-1.7,16.5
	c-3.8,17.6-12.5,31.1-25.7,40.4c-10.2,7.1-24,11.7-41.1,13.8L145.7,191.1z M199.1,166.6c-5.3,1.2-10.6,2.1-15.7,2.6
	c1,3.4,2.7,6.4,5,8.9c3.7,4,8.3,5.9,14.3,5.9c11.1,0,19.8-6.4,26.7-19.5c2.9-4.9,7.2-7.5,12.3-7.5c0.5,0,1,0,1.6,0.1
	c3.9,0.5,7,2.4,8.8,5.4c1.2,1.9,2.4,5.1,1.3,9.7c-0.1,0.3-0.2,0.6-0.3,0.9c-4.1,11-11.3,20.2-21.5,27.4
	c-10.2,7.2-22.2,10.8-35.8,10.8c-16.5,0-29.6-6.3-39-18.8c-9.3-12.3-12.2-27.3-8.5-44.6c2.6-12,7.7-22.8,15-32.1
	c7.3-9.3,16-16.4,25.8-21.2c9.8-4.8,20.1-7.2,30.6-7.2c4.6,0,8.9,0.4,12.8,1.3c4.2,0.9,7.7,2.3,10.7,4.1c2.8,1.7,5.4,3.7,7.5,6
	c2.4,2.6,4.1,5.5,5.2,8.6c0.8,2.5,1.4,5.2,1.7,7.9c0.3,3.1,0.1,6.2-0.7,9.1c-1.6,7.3-5.7,14.3-12.2,20.4c-6,5.6-13.1,10.3-21.3,13.7
	C215.7,162.1,207.5,164.7,199.1,166.6z M184.1,147.5c8.2-1.4,15.8-3.9,22.5-7.6c8.5-4.7,13.5-10.9,15.2-18.9
	c0.6-2.8,0.3-5.1-0.9-7.1c-0.4-0.6-0.9-1.6-4-1.6c-5.4,0-11.6,3.5-18.7,10.4C191.5,129.3,186.9,137.4,184.1,147.5z M318.5,175.4
	c-3,0-5.9,1.1-8.8,3.4c-4.8,4-9.4,6-13.7,6c-2,0-2.9-0.4-3-0.6c-0.7-1.1-0.7-3.1-0.2-5.6l14.4-66.9h29.7c2.6,0,5.2-0.9,7.4-2.7
	c2.2-1.8,3.6-4.3,4.1-7c0.5-2.6,0-5.3-1.4-7.6c-1.8-3.1-5.1-4.9-8.6-4.9h-26.4l2.4-11c1-5.8-0.6-11.6-4.7-17.3
	c-5.5-7.5-11.5-9.1-15.6-9.1c-5.9,0-10.4,3.5-11.9,9.5l-5.9,27.8h-4.6c-1.8,0-4.6,0.5-7.4,2.7c-3,2.3-4,5.1-4.3,7.1
	c-0.6,3.1,0.3,6.2,2.3,8.6c2,2.4,4.9,3.7,8,3.7h1.2L258,174.3c-2.2,10.4-0.9,19.2,4.1,26.1c5.2,7.2,13.8,10.9,25.6,10.9
	c13.2,0,25-4.5,35.1-13.3c2.6-2.2,5.7-5.3,6.5-9.4c0.8-3.5-0.1-6.9-2.4-9.5C324.8,176.8,321.8,175.4,318.5,175.4z M424.6,109.6
	c2.4-2.1,4-4.8,4.6-7.8c0.8-3.8-0.3-7.6-3-10.4c-2.4-2.5-5.5-3.9-9-3.9c-10.3,0-20.5,4-30.4,12c-1.9,1.5-3.8,3.2-5.6,5.1
	c-0.8-2.7-2.2-5.3-4.1-8c-5.5-7.5-11.5-9.1-15.6-9.1c-5.7,0-10.1,3.6-11.5,9.6L331.3,185c-1,5.8,0.5,11.5,4.5,17.2
	c5.4,7.6,11.4,9.2,15.5,9.2c5.9,0,10.4-3.5,11.9-9.5l4.4-20.1c4.2-19.7,11.6-36.5,22.1-50.1c9.4-12.3,18.4-18.7,25.8-18.7
	C418.9,113,422.1,111.8,424.6,109.6z M520.6,151c-3.4,16.5-11.9,30.9-25.3,42.5c-13.5,11.8-28.4,17.8-44.2,17.8
	c-16.6,0-29.6-6.4-38.7-19.2c-8.9-12.4-11.6-27.3-8.1-44.4c3.4-16.6,12-30.8,25.4-42.5c13.6-11.8,28.5-17.7,44.3-17.7
	c16.6,0,29.6,6.4,38.6,19.1C521.4,119,524.1,133.9,520.6,151z M483.8,121.5c-3.6-7.5-8-8.5-11.8-8.5c-6.2,0-12.4,3.4-18.9,10.5
	c-7,7.7-11.6,16.7-13.9,27.5c-2.2,10.3-1.5,19.2,1.9,26.3c3.7,7.7,8.3,8.7,11.9,8.7c6,0,12.3-3.6,18.6-10.6
	c6.9-7.7,11.6-17,13.8-27.7C487.7,137.4,487.1,128.6,483.8,121.5z M633,96.4c-5.6-7.4-11.6-8.9-15.7-8.9c-5.8,0-10.3,3.6-11.8,9.6
	c-6.3,29.7-14.2,52.8-23.6,68.8c-5.6,9.5-14.3,20.9-24,20.9l0,0c-1.6,0-2.3-0.3-2.4-0.3c0,0,0,0,0,0c-0.3-0.5-0.8-2-0.1-5.5
	l14.3-67.1c1-5.8-0.6-11.6-4.7-17.3c-5.5-7.5-11.5-9.1-15.6-9.1c-6.1,0-10.7,3.6-12.2,9.7l-15.6,74.6c-2.1,10.2-0.5,19.4,4.7,27.1
	c3.8,5.7,11.3,12.4,25,12.4c18.9,0,36.8-9.6,53.4-28.4c15.9-18.1,26.9-41.2,32.8-68.7C638.5,110.1,638.5,103.6,633,96.4z M672.7,83
	c5.7,0,10.1-3.6,11.8-9.9l4.4-20.5c1-5.8-0.6-11.6-4.7-17.3c-5.5-7.5-11.5-9.1-15.5-9.1c-5.7,0-10.1,3.5-11.7,9.6l-4.2,20.8
	c-1,5.7,0.5,11.5,4.5,17.2C662.6,81.4,668.6,83,672.7,83z M674.4,96.6c-5.4-7.7-11.4-9.3-15.6-9.3c-6,0-10.7,3.6-12.2,9.6l-18.7,88
	c-0.7,4-0.5,10.3,4.7,17.3c5.5,7.6,11.5,9.1,15.5,9.1c6,0,10.5-3.6,11.9-9.5l18.6-87.8C679.6,110,679.5,103.7,674.4,96.6z
	 M747.4,184.5h-34.2l55.8-59.3c4.3-3.9,6.6-9.4,7-16.2c0.4-9.4-3.4-14.3-6.8-16.9c-2.3-1.7-5.1-2.6-8.1-2.6h-60.3
	c-7.1,0-12.3,4-13.7,10.4c-0.8,3.7,0.2,7.4,2.8,10.3c2.4,2.6,5.6,4.1,9.1,4.1h33l-55.9,59c-4.3,3.9-6.7,9.5-7,16.5
	c-0.4,9.6,3.4,14.5,7.1,17.3c2.4,1.6,4.9,2.4,7.6,2.4h62.2c6.9,0,12.1-4.1,13.5-10.7c0.8-3.6,0-7.1-2.3-9.9
	C754.8,186.1,751.3,184.5,747.4,184.5z M883,151c-3.4,16.6-11.9,30.9-25.3,42.5c-13.5,11.8-28.4,17.8-44.2,17.8
	c-16.6,0-29.6-6.4-38.7-19.2c-8.9-12.4-11.6-27.4-8.1-44.4c3.4-16.6,12-30.9,25.4-42.5c13.6-11.8,28.5-17.7,44.3-17.7
	c16.6,0,29.5,6.4,38.6,19.1C883.9,119,886.6,133.9,883,151z M846.2,121.5c-3.6-7.5-8-8.5-11.8-8.5c-6.2,0-12.5,3.5-18.8,10.5
	c-7,7.7-11.6,16.7-13.9,27.5c-2.2,10.3-1.5,19.2,1.9,26.3c3.7,7.7,8.3,8.7,11.9,8.7c6,0,12.3-3.6,18.6-10.6
	c6.9-7.7,11.6-17,13.8-27.7C850.2,137.4,849.6,128.6,846.2,121.5z M976.6,91.4c-2.4-2.5-5.5-3.9-9-3.9c-10.3,0-20.5,4-30.4,12
	c-1.9,1.5-3.8,3.2-5.6,5.1c-0.8-2.7-2.2-5.3-4.1-8c-5.5-7.5-11.5-9.1-15.6-9.1c-5.7,0-10.1,3.6-11.5,9.6L881.6,185
	c-1,5.8,0.5,11.5,4.5,17.2c5.3,7.6,11.4,9.2,15.5,9.2c5.9,0,10.4-3.5,11.9-9.5l4.4-20.1c4.2-19.7,11.6-36.5,22.1-50.1
	c9.4-12.3,18.4-18.7,25.8-18.7c3.5,0,6.6-1.2,9.2-3.4c2.4-2.1,4-4.8,4.6-7.8C980.3,98,979.2,94.2,976.6,91.4z"/>
</svg>
