<?xml version="1.0" encoding="UTF-8"?>
<svg width="32px" height="32px" viewBox="0 0 32 32" version="1.1" xmlns="http://www.w3.org/2000/svg" xmlns:xlink="http://www.w3.org/1999/xlink">
    <!-- Generator: Sketch 55.2 (78181) - https://sketchapp.com -->
    <title>Budicon-Outline/Interface/tick-sign</title>
    <desc>Created with Sketch.</desc>
    <g id="Administrator" stroke="none" stroke-width="1" fill="none" fill-rule="evenodd">
        <g id="Dodaj-kandidata(3)" transform="translate(-30.000000, -365.000000)" fill="#A8E063" fill-rule="nonzero">
            <g id="Budicon-Outline/Interface/tick-sign" transform="translate(30.000000, 365.000000)">
                <path d="M22.838784,11.693696 C22.9624866,11.8100244 23.0348884,11.9707448 23.0400499,12.1404739 C23.0452114,12.310203 22.9827094,12.4750259 22.866304,12.598656 L15.638784,20.278656 C15.4000206,20.5322607 15.002286,20.5483589 14.743808,20.31488 L10.4512,16.443136 C10.2773512,16.2910118 10.1989745,16.0570057 10.2461276,15.8308603 C10.2932808,15.6047148 10.458645,15.4215307 10.6788024,15.35156 C10.8989598,15.2815892 11.1397389,15.3356921 11.3088,15.49312 L15.136,18.945024 L21.93408,11.721216 C22.0503993,11.597591 22.2110658,11.5252392 22.3807322,11.5200781 C22.5503986,11.5149171 22.7151656,11.5773696 22.838784,11.693696 Z M32,16 C32,24.836556 24.836556,32 16,32 C7.163444,32 0,24.836556 0,16 C0,7.163444 7.163444,0 16,0 C20.2434638,0 24.3131264,1.68570945 27.3137085,4.6862915 C30.3142906,7.68687356 32,11.7565362 32,16 Z M30.72,16 C30.72,7.87036848 24.1296315,1.28 16,1.28 C7.87036848,1.28 1.28,7.87036848 1.28,16 C1.28,24.1296315 7.87036848,30.72 16,30.72 C24.1258593,30.7109002 30.7109002,24.1258593 30.72,16 Z" id="Shape"></path>
            </g>
        </g>
    </g>
</svg>