<?xml version="1.0" encoding="UTF-8"?>
<svg width="25px" height="24px" viewBox="0 0 25 24" version="1.1" xmlns="http://www.w3.org/2000/svg" xmlns:xlink="http://www.w3.org/1999/xlink">
    <!-- Generator: Sketch 55.2 (78181) - https://sketchapp.com -->
    <title>Shape</title>
    <desc>Created with Sketch.</desc>
    <g id="Symbols" stroke="none" stroke-width="1" fill="none" fill-rule="evenodd">
        <g id="Budicon-Solid/Time/events" transform="translate(0.000000, -1.000000)" fill="#8B959E" fill-rule="nonzero">
            <path d="M25,4 L25,8 L0,8 L0,4 C0,3.44771525 0.44771525,3 1,3 L6,3 L6,1.5 C6,1.22385763 6.22385763,1 6.5,1 C6.77614237,1 7,1.22385763 7,1.5 L7,3 L18,3 L18,1.5 C18,1.22385763 18.2238576,1 18.5,1 C18.7761424,1 19,1.22385763 19,1.5 L19,3 L24,3 C24.5522847,3 25,3.44771525 25,4 Z M0,9 L25,9 L25,24 C25,24.5522847 24.5522847,25 24,25 L1,25 C0.44771525,25 0,24.5522847 0,24 L0,9 Z M18,14 L20,14 L20,12 L18,12 L18,14 Z M13,14 L15,14 L15,12 L13,12 L13,14 Z M10,19 L12,19 L12,17 L10,17 L10,19 Z M5,19 L7,19 L7,17 L5,17 L5,19 Z" id="Shape"></path>
        </g>
    </g>
</svg>