<?xml version="1.0" encoding="UTF-8"?>
<svg width="25px" height="25px" viewBox="0 0 25 25" version="1.1" xmlns="http://www.w3.org/2000/svg" xmlns:xlink="http://www.w3.org/1999/xlink">
    <!-- Generator: Sketch 55.2 (78181) - https://sketchapp.com -->
    <title>Shape</title>
    <desc>Created with Sketch.</desc>
    <g id="Symbols" stroke="none" stroke-width="1" fill="none" fill-rule="evenodd">
        <g id="Budicon-Solid/Interface/cog" fill="#8B959E" fill-rule="nonzero">
            <path d="M24.2755,10.5523 L22.22,9.9634 C22.0601261,9.91659376 21.9351062,9.79157393 21.8883,9.6317 C21.7052116,9.02779508 21.4640868,8.44303404 21.1683,7.8856 C21.089175,7.73989621 21.0897026,7.56392667 21.1697,7.4187 L22.2017,5.56 C22.4182368,5.16976123 22.3499744,4.6832745 22.0344,4.3677 L20.6325,2.9655 C20.3168923,2.64982872 19.8302873,2.5815612 19.44,2.7982 L17.5806,3.83 C17.4352028,3.910062 17.2590045,3.91040135 17.1133,3.8309 C16.556115,3.53502723 15.9715445,3.29389817 15.3678,3.1109 C15.2081134,3.06389567 15.0833152,2.93887146 15.0366,2.7791 L14.4478,0.7245 C14.3248775,0.295587017 13.9326797,0 13.4865,0 L11.5135,0 C11.0673203,0 10.6751225,0.295587017 10.5522,0.7245 L9.9634,2.7793 C9.91654029,2.93916329 9.79154916,3.06419211 9.6317,3.1111 C9.02807073,3.29406133 8.44362944,3.53519234 7.8866,3.8311 C7.74082372,3.91049455 7.56463522,3.9101176 7.4192,3.8301 L5.56,2.7982 C5.16973967,2.5816888 4.68325036,2.64999234 4.3677,2.9656 L2.9656,4.3674 C2.64988027,4.68302423 2.58161017,5.16968843 2.7983,5.56 L3.83,7.4195 C3.91003529,7.56499329 3.91029923,7.74126768 3.8307,7.887 C3.53470973,8.44395579 3.29357521,9.0283721 3.1107,9.632 C3.06375022,9.79178219 2.9387246,9.91669478 2.7789,9.9635 L0.7243,10.5522 C0.295466299,10.6751963 0,11.0673762 0,11.5135 L0,13.4862 C0,13.9323797 0.295587017,14.3245775 0.7245,14.4475 L2.7796,15.0364 C2.9395366,15.0831959 3.06460405,15.2082634 3.1114,15.3682 C3.29448461,15.9720421 3.53560977,16.5567371 3.8314,17.1141 C3.91051882,17.2597962 3.91002892,17.4357467 3.8301,17.581 L2.7983,19.44 C2.5818398,19.8302361 2.65014077,20.3166662 2.9657,20.6322 L4.3675,22.0341 C4.68305036,22.3497077 5.16953967,22.4180112 5.5598,22.2015 L7.4192,21.17 C7.56465228,21.0900136 7.74084076,21.0896743 7.8866,21.1691 C8.44359478,21.4650074 9.02800288,21.7061385 9.6316,21.8891 C9.79142957,21.9360409 9.91640727,22.0610563 9.9633,22.2209 L10.5524,24.2759 C10.6754599,24.7046188 11.0675691,25 11.5136,25 L13.4863,25 C13.9324797,25 14.3246775,24.704413 14.4476,24.2755 L15.0364,22.2209 C15.0832052,22.0610754 15.2081178,21.9360498 15.3679,21.8891 C15.97165,21.7061172 16.556222,21.4649876 17.1134,21.1691 C17.2591453,21.0897233 17.4352957,21.0901002 17.5807,21.1701 L19.44,22.2017 C19.8302388,22.4182368 20.3167255,22.3499744 20.6323,22.0344 L22.0342,20.6325 C22.349726,20.3169421 22.4179858,19.8305145 22.2015,19.4403 L21.17,17.5807 C21.0900314,17.4352787 21.0896922,17.2591283 21.1691,17.1134 C21.4649508,16.5561699 21.7060789,15.9715684 21.8891,15.3678 C21.9360663,15.2080276 22.0610852,15.0831217 22.2209,15.0363 L24.2755,14.4475 C24.7043774,14.3245877 25,13.9324426 25,13.4863 L25,11.5136 C25,11.0674203 24.704413,10.6752225 24.2755,10.5523 Z M12.5,17 C10.0147186,17 8,14.9852814 8,12.5 C8,10.0147186 10.0147186,8 12.5,8 C14.9852814,8 17,10.0147186 17,12.5 C17,13.6934742 16.5258942,14.8380668 15.6819805,15.6819805 C14.8380668,16.5258942 13.6934742,17 12.5,17 Z" id="Shape"></path>
        </g>
    </g>
</svg>