<?xml version="1.0" encoding="UTF-8"?>
<svg width="23px" height="25px" viewBox="0 0 23 25" version="1.1" xmlns="http://www.w3.org/2000/svg" xmlns:xlink="http://www.w3.org/1999/xlink">
    <!-- Generator: Sketch 55.2 (78181) - https://sketchapp.com -->
    <title>Shape</title>
    <desc>Created with Sketch.</desc>
    <g id="Symbols" stroke="none" stroke-width="1" fill="none" fill-rule="evenodd">
        <g id="Budicon-Outline/Interface/logout" transform="translate(-1.000000, 0.000000)" fill="#8B959E" fill-rule="nonzero">
            <path d="M24,12.5 C24,12.6326325 23.9474242,12.7598536 23.8535,12.8535 L18.8535,17.8535 C18.6573106,18.0429861 18.3454576,18.0402762 18.1525907,17.8474093 C17.9597238,17.6545424 17.9570139,17.3426894 18.1465,17.1465 L22.293,13 L6.5,13 C6.22385763,13 6,12.7761424 6,12.5 C6,12.2238576 6.22385763,12 6.5,12 L22.293,12 L18.1465,7.8535 C17.9570139,7.65731056 17.9597238,7.34545761 18.1525907,7.15259071 C18.3454576,6.95972381 18.6573106,6.9570139 18.8535,7.1465 L23.8535,12.1465 C23.9474242,12.2401464 24,12.3673675 24,12.5 Z M14.5,14.0193534 C14.2238576,14.0193534 13.7761424,14.0193534 13.5,14.0193534 L6.0043604,14.0193534 C4.97347416,14.0193534 4.97347416,13.0712347 4.97347416,12.5 C4.97347416,11.9287653 4.97347416,10.9912109 6.0043604,10.9912109 C6.69161789,10.9912109 9.19016442,10.9912109 13.5,10.9912109 C13.7761424,10.9912109 14.2238576,10.9912109 14.5,10.9912109 C14.7761424,10.9912109 15,10.7673533 15,10.4912109 L15,1.5 C15,0.671572875 14.3284271,0 13.5,0 L2.5,0 C1.67157288,0 1,0.671572875 1,1.5 L1,23.5 C1,24.3284271 1.67157288,25 2.5,25 L13.5,25 C14.3284271,25 15,24.3284271 15,23.5 L15,14.5193534 C15,14.243211 14.7761424,14.0193534 14.5,14.0193534 Z" id="Shape"></path>
        </g>
    </g>
</svg>