<?xml version="1.0" encoding="UTF-8"?>
<svg width="25px" height="25px" viewBox="0 0 25 25" version="1.1" xmlns="http://www.w3.org/2000/svg" xmlns:xlink="http://www.w3.org/1999/xlink">
    <!-- Generator: Sketch 55.2 (78181) - https://sketchapp.com -->
    <title>Shape</title>
    <desc>Created with Sketch.</desc>
    <g id="Symbols" stroke="none" stroke-width="1" fill="none" fill-rule="evenodd">
        <g id="Budicon-Solid/Time/wall-clock" fill="#8B959E" fill-rule="nonzero">
            <path d="M12.5,0 C5.59644063,0 0,5.59644063 0,12.5 C0,19.4035594 5.59644063,25 12.5,25 C19.4035594,25 25,19.4035594 25,12.5 C25,9.18479388 23.6830395,6.00536997 21.3388348,3.66116524 C18.99463,1.3169605 15.8152061,0 12.5,0 Z M16.8532,16.8531 C16.6579386,17.0483576 16.3413614,17.0483576 16.1461,16.8531 L12.1461,12.8531 L12.1423,12.8475 C12.0516326,12.7551706 12.0005773,12.6311024 12,12.5017 L12,12.5 L12,6.5 C12,6.22385763 12.2238576,6 12.5,6 C12.7761424,6 13,6.22385763 13,6.5 L13,12.2928 L16.8532,16.1459 C16.9469967,16.239672 16.9996932,16.3668689 16.9996932,16.4995 C16.9996932,16.6321311 16.9469967,16.759328 16.8532,16.8531 Z" id="Shape"></path>
        </g>
    </g>
</svg>