<?xml version="1.0" encoding="UTF-8"?>
<svg width="23px" height="23px" viewBox="0 0 23 23" version="1.1" xmlns="http://www.w3.org/2000/svg" xmlns:xlink="http://www.w3.org/1999/xlink">
    <!-- Generator: Sketch 55.2 (78181) - https://sketchapp.com -->
    <title>Shape</title>
    <desc>Created with Sketch.</desc>
    <g id="Symbols" stroke="none" strokeWidth="1" fill="none" fillRule="evenodd">
        <g id="Budicon-Solid/Communication/call" transform="translate(-1.000000, -1.000000)" fill="#8B959E" fillRule="nonzero">
            <path d="M23.5545499,20.7935954 L21.8337499,22.5142954 C20.1084669,24.2426029 17.3952615,24.4928598 15.3829499,23.1092954 C12.7045902,21.3404908 10.1660866,19.3685211 7.78984992,17.2107954 C5.63193288,14.8342736 3.65979587,12.295469 1.89084992,9.61679542 C0.507455066,7.60450799 0.757614715,4.89148707 2.48564992,3.16609542 L4.20644992,1.44539542 C4.49152127,1.16021917 4.87822397,1 5.28144992,1 C5.68467588,1 6.07137857,1.16021917 6.35644992,1.44539542 L9.22264992,4.31159542 C9.50782617,4.59666677 9.66804534,4.98336947 9.66804534,5.38659542 C9.66804534,5.78982138 9.50782617,6.17652407 9.22264992,6.46159542 L7.98804992,7.69609542 C7.65612625,8.02766642 7.59534102,8.54378232 7.84114992,8.94339542 C8.84688981,10.6268651 10.0308,12.1972652 11.3724499,13.6274954 C12.8026677,14.969117 14.3730315,16.1530251 16.0564499,17.1587954 C16.456077,17.4046164 16.9722206,17.3437866 17.3037499,17.0117954 L18.5383499,15.7771954 C19.1321064,15.183611 20.0945934,15.183611 20.6883499,15.7771954 L23.5547499,18.6436954 C23.8398691,18.9287892 24,19.3154854 24,19.7186869 C24,20.1218883 23.8397221,20.5085547 23.5545499,20.7935954 L23.5545499,20.7935954 Z" id="Shape"></path>
        </g>
    </g>
</svg>