<?xml version="1.0" encoding="UTF-8"?>
<svg width="25px" height="25px" viewBox="0 0 25 25" version="1.1" xmlns="http://www.w3.org/2000/svg" xmlns:xlink="http://www.w3.org/1999/xlink">
    <!-- Generator: Sketch 55.2 (78181) - https://sketchapp.com -->
    <title>Shape</title>
    <desc>Created with Sketch.</desc>
    <g id="Symbols" stroke="none" stroke-width="1" fill="none" fill-rule="evenodd">
        <g id="Budicon-Solid/Interface/cross-ui" fill="#EB3349" fill-rule="nonzero">
            <path d="M24.2356837,22.9356582 C24.5855038,23.2978537 24.5805009,23.8735817 24.2244393,24.2296433 C23.8683777,24.585705 23.2926497,24.5907079 22.9304542,24.2408877 L12.5061565,13.8165901 L2.08185883,24.2408877 C1.71966329,24.5907079 1.14393533,24.585705 0.787873701,24.2296433 C0.431812076,23.8735817 0.426809155,23.2978537 0.77662932,22.9356582 L11.200927,12.5113605 L0.77662932,2.08706287 C0.536669627,1.85530205 0.4404334,1.51209922 0.52490911,1.18936467 C0.60938482,0.86663012 0.861426079,0.614588861 1.18416063,0.530113151 C1.50689518,0.445637441 1.85009801,0.541873668 2.08185883,0.781833361 L12.5061565,11.206131 L22.9304542,0.781833361 C23.162215,0.541873668 23.5054178,0.445637441 23.8281524,0.530113151 C24.1508869,0.614588861 24.4029282,0.86663012 24.4874039,1.18936467 C24.5718796,1.51209922 24.4756434,1.85530205 24.2356837,2.08706287 L13.811386,12.5113605 L24.2356837,22.9356582 Z" id="Shape"></path>
        </g>
    </g>
</svg>