<?xml version="1.0" encoding="UTF-8"?>
<svg width="24px" height="25px" viewBox="0 0 24 25" version="1.1" xmlns="http://www.w3.org/2000/svg" xmlns:xlink="http://www.w3.org/1999/xlink">
    <!-- Generator: Sketch 55.2 (78181) - https://sketchapp.com -->
    <title>Shape</title>
    <desc>Created with Sketch.</desc>
    <g id="Symbols" stroke="none" stroke-width="1" fill="none" fill-rule="evenodd">
        <g id="Budicon-Outline/Business/filing" fill="#1488CC" fill-rule="nonzero">
            <path d="M4.5,1 L1.5,1 C0.671572875,1 0,1.67157288 0,2.5 L0,22.5 C0,23.3284271 0.671572875,24 1.5,24 L4.5,24 C5.32842712,24 6,23.3284271 6,22.5 L6,2.5 C6,1.67157288 5.32842712,1 4.5,1 Z M13.5,1 L10.5,1 C9.67157288,1 9,1.67157288 9,2.5 L9,22.5 C9,23.3284271 9.67157288,24 10.5,24 L13.5,24 C14.3284271,24 15,23.3284271 15,22.5 L15,2.5 C15,1.67157288 14.3284271,1 13.5,1 Z M22.5,1 L19.5,1 C18.6715729,1 18,1.67157288 18,2.5 L18,22.5 C18,23.3284271 18.6715729,24 19.5,24 L22.5,24 C23.3284271,24 24,23.3284271 24,22.5 L24,2.5 C24,1.67157288 23.3284271,1 22.5,1 Z M4,4.5 C4,4.77614237 3.77614237,5 3.5,5 L2.5,5 C2.22385763,5 2,4.77614237 2,4.5 C2,4.22385763 2.22385763,4 2.5,4 L3.5,4 C3.77614237,4 4,4.22385763 4,4.5 Z M4,7.5 C4,7.77614237 3.77614237,8 3.5,8 L2.5,8 C2.22385763,8 2,7.77614237 2,7.5 C2,7.22385763 2.22385763,7 2.5,7 L3.5,7 C3.77614237,7 4,7.22385763 4,7.5 Z M13,4.5 C13,4.77614237 12.7761424,5 12.5,5 L11.5,5 C11.2238576,5 11,4.77614237 11,4.5 C11,4.22385763 11.2238576,4 11.5,4 L12.5,4 C12.7761424,4 13,4.22385763 13,4.5 Z M13,7.5 C13,7.77614237 12.7761424,8 12.5,8 L11.5,8 C11.2238576,8 11,7.77614237 11,7.5 C11,7.22385763 11.2238576,7 11.5,7 L12.5,7 C12.7761424,7 13,7.22385763 13,7.5 Z M22,4.5 C22,4.77614237 21.7761424,5 21.5,5 L20.5,5 C20.2238576,5 20,4.77614237 20,4.5 C20,4.22385763 20.2238576,4 20.5,4 L21.5,4 C21.7761424,4 22,4.22385763 22,4.5 Z M22,7.5 C22,7.77614237 21.7761424,8 21.5,8 L20.5,8 C20.2238576,8 20,7.77614237 20,7.5 C20,7.22385763 20.2238576,7 20.5,7 L21.5,7 C21.7761424,7 22,7.22385763 22,7.5 Z" id="Shape" transform="translate(12.000000, 12.500000) rotate(-90.000000) translate(-12.000000, -12.500000) "></path>
        </g>
    </g>
</svg>