<?xml version="1.0" encoding="UTF-8"?>
<svg width="22px" height="20px" viewBox="0 0 22 20" version="1.1" xmlns="http://www.w3.org/2000/svg" xmlns:xlink="http://www.w3.org/1999/xlink">
    <!-- Generator: Sketch 55.2 (78181) - https://sketchapp.com -->
    <title>Shape</title>
    <desc>Created with Sketch.</desc>
    <g id="Symbols" stroke="none" strokeWidth="1" fill="none" fillRule="evenodd">
        <g id="Budicon-Solid/User/shared-user" transform="translate(-2.000000, -3.000000)" fill="#8B959E" fillRule="nonzero">
            <path d="M5,8 C5,5.23857625 7.23857625,3 10,3 C12.7614237,3 15,5.23857625 15,8 C15,10.7614237 12.7614237,13 10,13 C7.2398556,12.9969138 5.00308618,10.7601444 5,8 Z M10,14 C5.581722,14 2,17.581722 2,22 L2,22.5 C2,22.7761424 2.22385763,23 2.5,23 L17.5,23 C17.7761424,23 18,22.7761424 18,22.5 L18,22 C18,17.581722 14.418278,14 10,14 Z M19,11 C20.6568542,11 22,9.65685425 22,8 C22,6.34314575 20.6568542,5 19,5 C17.3431458,5 16,6.34314575 16,8 C16.0018187,9.65610033 17.3438997,10.9981813 19,11 Z M17.4783,17 L24.0000122,17 C24.0049189,14.7654342 22.5234118,12.8001308 20.3738376,12.1896893 C18.2242634,11.5792477 15.9309566,12.4725698 14.7607,14.3762 C15.8408598,15.050139 16.766851,15.9441689 17.4783,17 Z" id="Shape"></path>
        </g>
    </g>
</svg>