<?xml version="1.0" encoding="UTF-8"?>
<svg width="16px" height="20px" viewBox="0 0 16 20" version="1.1" xmlns="http://www.w3.org/2000/svg" xmlns:xlink="http://www.w3.org/1999/xlink">
    <!-- Generator: Sketch 55.2 (78181) - https://sketchapp.com -->
    <title>Shape</title>
    <desc>Created with Sketch.</desc>
    <g id="Symbols" stroke="none" stroke-width="1" fill="none" fill-rule="evenodd">
        <g id="Budicon-Outline/User/user" transform="translate(-2.000000, -2.000000)" fill="#1488CC" fill-rule="nonzero">
            <path d="M5,7 C5,4.23857625 7.23857625,2 10,2 C12.7614237,2 15,4.23857625 15,7 C15,9.76142375 12.7614237,12 10,12 C7.2398556,11.9969138 5.00308618,9.7601444 5,7 Z M10,13 C5.581722,13 2,16.581722 2,21 L2,21.5 C2,21.7761424 2.22385763,22 2.5,22 L17.5,22 C17.7761424,22 18,21.7761424 18,21.5 L18,21 C18,16.581722 14.418278,13 10,13 Z" id="Shape"></path>
        </g>
    </g>
</svg>