<?xml version="1.0" encoding="UTF-8"?>
<svg width="25px" height="17px" viewBox="0 0 25 17" version="1.1" xmlns="http://www.w3.org/2000/svg" xmlns:xlink="http://www.w3.org/1999/xlink">
    <!-- Generator: Sketch 55.2 (78181) - https://sketchapp.com -->
    <title>Shape</title>
    <desc>Created with Sketch.</desc>
    <g id="Symbols" stroke="none" strokeWidth="1" fill="none" fillRule="evenodd">
        <g id="Budicon-Solid/Travel/sedan-front" transform="translate(0.000000, -4.000000)" fill="#8B959E" fillRule="nonzero">
            <path d="M24.5,8 L21.7133001,8 C21.0876001,6.79910428 20.3775001,5.53300428 19.9333001,4.75440428 C19.6670398,4.2870408 19.1700866,3.99889888 18.6322001,4 L6.36780008,4 C5.82973487,3.99871865 5.33254861,4.28688499 5.06620008,4.75440428 C4.62250008,5.53300428 3.91250008,6.79910428 3.28670008,8 L0.5,8 C0.223857708,8 0,8.22386191 0,8.5 L0,10 C0,10.2296095 0.156130985,10.4297939 0.378900083,10.4854043 L2.01420008,10.8941043 C2.00726585,10.9290741 2.00252328,10.964443 2,11 C2,11.8066043 2.65080008,17.8200043 2.90240008,20.1143043 C2.95821562,20.6202259 3.38691452,21.0024087 3.89590008,21.0000156 L6.38200008,21.0000156 C6.76074311,21.0000156 7.10698833,20.786046 7.27640008,20.4473043 L7.86180008,19.2764043 C7.946492,19.107014 8.11961744,19.0000107 8.30900008,19 L16.6910001,19 C16.8803827,19.0000107 17.0535082,19.107014 17.1382001,19.2764043 L17.7236001,20.4473043 C17.8930118,20.786046 18.2392571,21.0000156 18.6180001,21.0000156 L21.1041001,21.0000156 C21.6130856,21.0024087 22.0417845,20.6202259 22.0976001,20.1143043 C22.3492001,17.8200043 23,11.8066043 23,11 C22.997481,10.9644095 22.9927384,10.9290071 22.9858001,10.8940043 L24.6211001,10.4853043 C24.843833,10.4297029 25,10.2295722 25,10 L25,8.5 C25,8.22386191 24.7761425,8 24.5,8 Z M2.34000008,9.94430428 L1.00000008,9.60940428 L1.00000008,9.00000428 L2.78000008,9.00000428 C2.61290008,9.34000428 2.46220008,9.66110428 2.34000008,9.94430428 Z M9.00000008,16.5000043 C9.00000008,16.7761467 8.77614246,17.0000043 8.50000008,17.0000043 L4.84000008,17.0000043 C4.58780934,17.0000043 4.37507173,16.8122487 4.34380008,16.5620043 L4.00380008,13.5630043 C3.98122612,13.3872527 4.05356809,13.2127152 4.19385433,13.1044655 C4.33414057,12.9962159 4.52131797,12.9704995 4.68560008,13.0369043 L8.68560008,14.5962043 C8.8754876,14.6721141 9.00000008,14.856006 9.00000008,15.0605043 L9.00000008,16.5000043 Z M20.6558001,16.5620043 C20.6245474,16.8120975 20.4120384,16.9998323 20.1600001,17.0000043 L16.5000001,17.0000043 C16.2238577,17.0000043 16.0000001,16.7761467 16.0000001,16.5000043 L16.0000001,15.0605043 C15.9999332,14.8559942 16.124418,14.6720593 16.3143001,14.5961043 L20.3143001,13.0368043 C20.4785822,12.9703995 20.6657596,12.9961159 20.8060458,13.1043655 C20.9463321,13.2126152 21.018674,13.3871527 20.9961001,13.5629043 L20.6558001,16.5620043 Z M12.5000001,11.0000043 C9.48329335,10.9035784 6.48883506,10.4478971 3.58000008,9.64260428 C4.02410008,8.71850428 4.75600008,7.31740428 5.93470008,5.24950428 C6.02286203,5.0936758 6.188771,4.99809906 6.36780008,4.99997632 L18.6322001,4.99997632 C18.8112158,4.99835313 18.9769885,5.09410909 19.0650001,5.25000428 C20.2436001,7.31790428 20.9755001,8.71900428 21.4196001,9.64310428 C18.5108742,10.4481967 15.5165524,10.9037098 12.5000001,11.0000043 L12.5000001,11.0000043 Z M24.0000001,9.60940428 L22.6600001,9.94440428 C22.5376001,9.66120428 22.3870001,9.34040428 22.2200001,9.00010428 L24.0000001,9.00010428 L24.0000001,9.60940428 Z M5.09000008,14.2678043 L8.00000008,15.4023043 L8.00000008,16.0000043 L5.28690008,16.0000043 L5.09000008,14.2678043 Z M17.0000001,15.4023043 L19.9100001,14.2678043 L19.7131001,16.0000043 L17.0000001,16.0000043 L17.0000001,15.4023043 Z" id="Shape"></path>
        </g>
    </g>
</svg>