<?xml version="1.0" encoding="UTF-8"?>
<svg width="25px" height="22px" viewBox="0 0 25 22" version="1.1" xmlns="http://www.w3.org/2000/svg" xmlns:xlink="http://www.w3.org/1999/xlink">
    <!-- Generator: Sketch 55.2 (78181) - https://sketchapp.com -->
    <title>Shape</title>
    <desc>Created with Sketch.</desc>
    <g id="Symbols" stroke="none" strokeWidth="1" fill="none" fillRule="evenodd">
        <g id="Budicon-Solid/Travel/car-front" transform="translate(0.000000, -1.000000)" fill="#8B959E" fillRule="nonzero">
            <path d="M10,3.50000073 C10,3.22385836 10.2238576,3.00000073 10.5,3.00000073 L14.5,3.00000073 C14.7761424,3.00000073 15,3.22385836 15,3.50000073 C15,3.77614311 14.7761424,4.00000073 14.5,4.00000073 L10.5,4.00000073 C10.2238576,4.00000073 10,3.77614311 10,3.50000073 Z M5.5,15.0000007 C4.67157288,15.0000007 4,15.6715736 4,16.5000007 C4,17.3284279 4.67157288,18.0000007 5.5,18.0000007 C6.32842712,18.0000007 7,17.3284279 7,16.5000007 C6.99911814,15.6719392 6.32806157,15.0008826 5.5,15.0000007 L5.5,15.0000007 Z M24.5,11 L23.6968,11 C24.3760641,12.2407353 24.8180172,13.5972519 25,15 L25,22 C25,22.5522855 24.5522847,23 24,23 L22,23 C21.4477153,23 21,22.5522855 21,22 L21,21 L4,21 L4,22 C4,22.5522855 3.55228475,23 3,23 L1,23 C0.44771525,23 0,22.5522855 0,22 L0,15 C0.181982806,13.5972519 0.623935929,12.2407353 1.3032,11 L0.5,11 C0.223857625,11 0,10.7761431 0,10.5 L0,8.5 C0,8.22385836 0.223857625,8 0.5,8 L2.67,8 L4.7607,3.12110073 C5.31195072,1.83364264 6.57799121,0.99909777 7.9785,1 L17.0215,1 C18.4220088,0.99909777 19.6880493,1.83364264 20.2393,3.12110073 L22.33,8 L24.5,8 C24.7761424,8 25,8.22385836 25,8.5 L25,10.5 C25,10.7761431 24.7761424,11 24.5,11 Z M2.86,10.0000007 L2.3743,9.00000073 L1,9.00000073 L1,10.0000007 L2.86,10.0000007 Z M3.3882,8.79930073 L3.9722,10.0000007 L4,10.0000007 L5.4142,11.4141007 C5.78925084,11.7892118 6.29795542,12.0000007 6.8284,12.0000007 L18.1716,12.0000007 C18.7020446,12.0000007 19.2107492,11.7892118 19.5858,11.4141007 L21,10.0000007 L21.0278,10.0000007 L21.6169,8.78810073 C21.5922,8.75610073 21.5569,8.73590073 21.54,8.69730073 L19.3191,3.51510073 C18.9251595,2.59601865 18.0214505,2.00000073 17.0215,2.00000073 L7.9785,2.00000073 C6.97854951,2.00000073 6.07484049,2.59601865 5.6809,3.51510073 L3.46,8.69730073 C3.44073353,8.73428348 3.41669476,8.76857654 3.3885,8.79930073 L3.3882,8.79930073 Z M8,16.5000007 C8,15.1192889 6.88071187,14.0000007 5.5,14.0000007 C4.11928813,14.0000007 3,15.1192889 3,16.5000007 C3,17.8807126 4.11928813,19.0000007 5.5,19.0000007 C6.88071187,19.0000007 8,17.8807126 8,16.5000007 Z M15,17.5000007 C15,17.2238584 14.7761424,17.0000007 14.5,17.0000007 L10.5,17.0000007 C10.2238576,17.0000007 10,17.2238584 10,17.5000007 C10,17.7761431 10.2238576,18.0000007 10.5,18.0000007 L14.5,18.0000007 C14.7761424,18.0000007 15,17.7761431 15,17.5000007 Z M15,15.5000007 C15,15.2238584 14.7761424,15.0000007 14.5,15.0000007 L10.5,15.0000007 C10.2238576,15.0000007 10,15.2238584 10,15.5000007 C10,15.7761431 10.2238576,16.0000007 10.5,16.0000007 L14.5,16.0000007 C14.7761424,16.0000007 15,15.7761431 15,15.5000007 Z M22,16.5000007 C22,15.1192889 20.8807119,14.0000007 19.5,14.0000007 C18.1192881,14.0000007 17,15.1192889 17,16.5000007 C17,17.8807126 18.1192881,19.0000007 19.5,19.0000007 C20.8807119,19.0000007 22,17.8807126 22,16.5000007 Z M24,9.00000073 L22.6257,9.00000073 L22.14,10.0000007 L24,10.0000007 L24,9.00000073 Z M19.5,15.0000007 C18.6715729,15.0000007 18,15.6715736 18,16.5000007 C18,17.3284279 18.6715729,18.0000007 19.5,18.0000007 C20.3284271,18.0000007 21,17.3284279 21,16.5000007 C20.9991181,15.6719392 20.3280616,15.0008826 19.5,15.0000007 L19.5,15.0000007 Z" id="Shape"></path>
        </g>
    </g>
</svg>