<?xml version="1.0" encoding="UTF-8"?>
<svg width="25px" height="25px" viewBox="0 0 25 25" version="1.1" xmlns="http://www.w3.org/2000/svg" xmlns:xlink="http://www.w3.org/1999/xlink">
    <!-- Generator: Sketch 55.2 (78181) - https://sketchapp.com -->
    <title>Combined Shape</title>
    <desc>Created with Sketch.</desc>
    <g id="Symbols" stroke="none" stroke-width="1" fill="none" fill-rule="evenodd">
        <g id="Budicon-Outline/Interface/tick-sign" fill="#1488CC" fill-rule="nonzero">
            <path d="M25,12.5 C25,19.4035594 19.4035594,25 12.5,25 C5.59644063,25 0,19.4035594 0,12.5 C0,5.59644063 5.59644063,0 12.5,0 C15.8152061,0 18.99463,1.3169605 21.3388348,3.66116524 C23.6830395,6.00536997 25,9.18479388 25,12.5 Z M17.9,19.4 L17,19.4 L17,16.7 C16.9990091,14.8352189 15.8473823,13.1644649 14.105,12.5 C15.8473823,11.8355351 16.9990091,10.1647811 17,8.3 L17,5.6 L17.9,5.6 C18.0656854,5.6 18.2,5.46568542 18.2,5.3 C18.2,5.13431458 18.0656854,5 17.9,5 L7.1,5 C6.93431458,5 6.8,5.13431458 6.8,5.3 C6.8,5.46568542 6.93431458,5.6 7.1,5.6 L8,5.6 L8,8.3 C8.0009909,10.1647811 9.15261771,11.8355351 10.895,12.5 C9.15261771,13.1644649 8.0009909,14.8352189 8,16.7 L8,19.4 L7.1,19.4 C6.93431458,19.4 6.8,19.5343146 6.8,19.7 C6.8,19.8656854 6.93431458,20 7.1,20 L17.9,20 C18.0656854,20 18.2,19.8656854 18.2,19.7 C18.2,19.5343146 18.0656854,19.4 17.9,19.4 Z M8.6,8.3 L8.6,5.6 L16.4,5.6 L16.4,8.3 C16.4,10.4539105 14.6539105,12.2 12.5,12.2 C10.3460895,12.2 8.6,10.4539105 8.6,8.3 Z M12.5,12.8 C14.4200857,12.8033903 16.0524457,14.2029413 16.34894,16.1 L8.65106,16.1 C8.94755432,14.2029413 10.5799143,12.8033903 12.5,12.8 Z M16.4,19.4 L8.6,19.4 L8.6,16.7 L16.4,16.7 L16.4,19.4 Z" id="Combined-Shape"></path>
        </g>
    </g>
</svg>