<?xml version="1.0" encoding="UTF-8"?>
<svg width="21px" height="23px" viewBox="0 0 21 23" version="1.1" xmlns="http://www.w3.org/2000/svg" xmlns:xlink="http://www.w3.org/1999/xlink">
    <!-- Generator: Sketch 55.2 (78181) - https://sketchapp.com -->
    <title>Shape</title>
    <desc>Created with Sketch.</desc>
    <g id="Symbols" stroke="none" strokeWidth="1" fill="none" fillRule="evenodd">
        <g id="Budicon-Solid/Tech/security-guard" transform="translate(-3.000000, -1.000000)" fill="#FFFFFF" fillRule="nonzero">
            <path d="M3,1 L3,12 C3,16.625 8.4375,24 13.5,24 C18.5625,24 24,16.625 24,12 L24,1 L3,1 Z M13.5,21 C9.9507,21 6,15.9336 6,12.5 L6,4.5 C6,4.22385763 6.22385763,4 6.5,4 L11.5,4 C11.7761424,4 12,4.22385763 12,4.5 C12,4.77614237 11.7761424,5 11.5,5 L7,5 L7,12.5 C7,15.3936 10.5493,20 13.5,20 C13.7761424,20 14,20.2238576 14,20.5 C14,20.7761424 13.7761424,21 13.5,21 Z" id="Shape"></path>
        </g>
    </g>
</svg>