<?xml version="1.0" encoding="UTF-8"?>
<svg width="24px" height="23px" viewBox="0 0 24 23" version="1.1" xmlns="http://www.w3.org/2000/svg" xmlns:xlink="http://www.w3.org/1999/xlink">
    <!-- Generator: Sketch 55.2 (78181) - https://sketchapp.com -->
    <title>Shape</title>
    <desc>Created with Sketch.</desc>
    <g id="Symbols" stroke="none" stroke-width="1" fill="none" fill-rule="evenodd">
        <g id="Budicon-Outline/Interface/star" transform="translate(-1.000000, 0.000000)" fill="#FFFFFF" fill-rule="nonzero">
            <path d="M24.5794002,8.24804065 L16.9066002,7.00974065 L13.4450002,0.27124065 C13.359304,0.104687743 13.1877067,0 13.0004002,0 C12.8130937,0 12.6414964,0.104687743 12.5558002,0.27124065 L9.09410019,7.00974065 L1.41940019,8.24824065 C1.23018156,8.2791534 1.07530244,8.41554384 1.02071246,8.59933508 C0.96612248,8.78312632 1.02143616,8.98194859 1.16310019,9.11114065 L6.98590019,14.3320407 L5.38940019,22.3984407 C5.35086554,22.5870728 5.42437676,22.7810355 5.57825536,22.8967437 C5.73213397,23.0124518 5.93888024,23.0292272 6.10940019,22.9398407 L12.9730002,19.3997407 L19.8368002,22.9432407 C20.0068227,23.0320582 20.2127215,23.015462 20.3663235,22.9005592 C20.5199254,22.7856564 20.59399,22.5928244 20.5568002,22.4046407 L19.0058002,14.3269407 L24.8351002,9.11154065 C24.9771153,8.98248501 25.0327411,8.78353766 24.9782558,8.59954036 C24.9237704,8.41554305 24.7687876,8.27896123 24.5794002,8.24804065 Z M18.3394002,13.5813407 L17.9173002,13.9590407 L18.0241002,14.5152407 L19.3811002,21.5823407 L13.4318002,18.5107407 L12.9732002,18.2739407 L12.5146002,18.5105407 L6.57130019,21.5761407 L7.96710019,14.5261407 L8.07770019,13.9675407 L7.65370019,13.5875407 L2.61370019,9.06854065 L9.25370019,7.99654065 L9.75280019,7.91594065 L9.98380019,7.46594065 L13.0005002,1.59384065 L16.0173002,7.46594065 L16.2483002,7.91594065 L16.7474002,7.99654065 L23.3842002,9.06804065 L18.3394002,13.5813407 Z" id="Shape"></path>
        </g>
    </g>
</svg>