<?xml version="1.0" encoding="UTF-8"?>
<svg width="25px" height="21px" viewBox="0 0 25 21" version="1.1" xmlns="http://www.w3.org/2000/svg" xmlns:xlink="http://www.w3.org/1999/xlink">
    <!-- Generator: Sketch 55.2 (78181) - https://sketchapp.com -->
    <title>Shape</title>
    <desc>Created with Sketch.</desc>
    <g id="Symbols" stroke="none" strokeWidth="1" fill="none" fillRule="evenodd">
        <g id="Budicon-Solid/Interface/card-slides" transform="translate(0.000000, -2.000000)" fill="#8B959E" fillRule="nonzero">
            <path d="M25,3.5 L25,12.5 C25,13.3284271 24.3284271,14 23.5,14 L1.5,14 C0.671572875,14 0,13.3284271 0,12.5 L0,3.5 C0,2.67157288 0.671572875,2 1.5,2 L23.5,2 C24.3284271,2 25,2.67157288 25,3.5 Z M22.5,16 L2.5,16 C2.22385763,16 2,16.2238576 2,16.5 C2,16.7761424 2.22385763,17 2.5,17 L22.5,17 C22.7761424,17 23,16.7761424 23,16.5 C23,16.2238576 22.7761424,16 22.5,16 Z M20.5,19 L4.5,19 C4.22385763,19 4,19.2238576 4,19.5 C4,19.7761424 4.22385763,20 4.5,20 L20.5,20 C20.7761424,20 21,19.7761424 21,19.5 C21,19.2238576 20.7761424,19 20.5,19 Z M18.5,22 L6.5,22 C6.22385763,22 6,22.2238576 6,22.5 C6,22.7761424 6.22385763,23 6.5,23 L18.5,23 C18.7761424,23 19,22.7761424 19,22.5 C19,22.2238576 18.7761424,22 18.5,22 Z" id="Shape"></path>
        </g>
    </g>
</svg>