<?xml version="1.0" encoding="utf-8"?>
<!-- Generator: Adobe Illustrator 23.0.4, SVG Export Plug-In . SVG Version: 6.00 Build 0)  -->
<svg version="1.1" id="Layer_1" xmlns="http://www.w3.org/2000/svg" xmlns:xlink="http://www.w3.org/1999/xlink" x="0px" y="0px"
	 viewBox="0 0 1000 232" style="enable-background:new 0 0 1000 232;" xml:space="preserve">
<style type="text/css">
	.st0{fill:#FFFFFF;}
	.st1{fill:url(#SVGID_1_);}
</style>
<g>
	<g>
		<path class="st0" d="M131.32,231.67c-2.41,0-4.93-0.22-7.92-0.69c-12.14-2.02-22.02-7.91-28.66-17.05
			c-0.07-0.1-17.38-25.74-17.38-25.74l-3.73,17.68c-0.03,0.16-0.07,0.32-0.11,0.47c-3.99,15.25-16.39,25.11-31.59,25.11
			c-5.69,0-20.18-1.64-31.74-16.86c-7.95-10.55-10.84-22.75-8.16-34.39l11.58-54.66l6.21-28.56l14.85-69.43
			c1.22-7.71,5.2-14.62,11.23-19.49c5.71-4.83,13.05-7.49,20.67-7.49h64.97c9.29,0,17.95,1.47,25.75,4.37
			c8.84,3.35,16.22,8.26,21.97,14.63c5.05,5.63,9.02,12.23,11.83,19.64c2.8,7,4.26,14.96,4.26,23.48c-0.03,2.72-0.16,5.43-0.4,8.14
			c8.07-2.35,16.28-3.53,24.57-3.53c5.82,0,11.57,0.6,17.12,1.77c6.08,1.38,11.33,3.38,16.14,6.13c1.94-1.35,3.99-2.48,6.12-3.38
			c0,0,3.09-14.6,3.12-14.72c3.82-15.28,16.23-25.15,31.62-25.15c7.14,0,20.78,2.27,31.85,17.44c4.57,6.25,7.42,12.98,8.46,19.87
			h3.96c3.08,0,6.11,0.46,8.99,1.36c4.34-2.19,9.21-3.33,14.38-3.33c5.39,0,14.75,1.3,23.83,8.78c10.27-5.83,20.93-8.78,31.78-8.78
			c7.97,0,15.46,2.83,21.41,8.04c11.21-5.34,23.06-8.04,35.33-8.04c18.08,0,34.11,6.17,46.3,17.61
			c5.57-10.85,16.38-17.61,28.94-17.61c7.17,0,20.85,2.27,31.92,17.44c1.75,2.43,3.25,4.92,4.48,7.46
			c3.88-15.14,16.15-24.9,31.38-24.9c3.89,0,9.94,0.68,16.48,3.91c-1.7-5.95-2.02-12.01-0.94-18.12l4.27-21.28
			c0.04-0.21,0.09-0.42,0.15-0.62c4.06-15.27,16.38-25.14,31.37-25.14c7.2,0,20.92,2.26,31.88,17.4
			c7.38,10.08,10.25,21.38,8.27,32.63c-0.02,0.13-2.83,13.18-2.83,13.18h54.97c7.32,0,14.24,2.25,20.02,6.5
			c2.73,2.06,5.12,4.41,7.14,7.02c14.93-10.29,31.13-15.49,48.31-15.49c18.28,0,34.46,6.3,46.7,17.98
			c5.42-11,16.15-17.98,28.55-17.98c5.41,0,14.8,1.3,23.85,8.77c10.28-5.82,20.95-8.77,31.83-8.77c8.94,0,17.32,3.63,23.6,10.21
			c5.65,5.96,8.74,13.71,8.74,21.85c0,2.31-0.24,4.57-0.72,6.72c-1.47,7.18-5.4,13.82-11.07,18.71c-5.87,5.21-13.21,8.12-21.2,8.38
			c-1.12,0.57-4.89,2.92-11.02,10.88c-8.51,11.04-14.67,25.15-18.3,41.95c0,0-4.4,20.25-4.43,20.34
			c-3.68,15.03-16.37,25.12-31.56,25.12c-7.28,0-21.12-2.31-32.02-17.79c-0.55-0.79-1.08-1.59-1.59-2.39
			c-16.52,13.42-34.75,20.18-54.31,20.18c-16.01,0-30.17-4.63-41.66-13.53c-6.22,7.32-15.49,11.7-25.99,11.7h-62.16
			c-5.64,0-11.07-1.42-16.18-4.24c-5.37,3.93-11.98,6.07-19.15,6.07s-20.85-2.27-31.87-17.46c-2.17-2.93-3.86-5.83-5.15-8.66
			c-18.28,17.34-38.34,26.12-59.77,26.12c-17.65,0-32.49-7.58-41.78-21.33c-0.33-0.49-0.65-0.98-0.96-1.47
			c-0.01,0.01-0.02,0.02-0.03,0.03c-17.24,15.1-36.56,22.78-57.39,22.78c-23.12,0-42.19-9.53-55.13-27.57
			c-3.73-5.22-6.68-10.74-8.85-16.52c0,0-4.12,18.92-4.15,19.03c-3.83,15.22-16.24,25.06-31.61,25.06c-4.82,0-15.7-1.17-25.66-10.48
			c-11.33,6.96-24.01,10.48-37.84,10.48c-21.6,0-33.87-9.03-40.58-17.35c-1.23,0.97-2.51,1.93-3.83,2.86
			c-13.74,9.62-29.67,14.48-47.38,14.48c-13.97,0-26.75-3.58-37.55-10.44C153.1,225.94,144.44,231.67,131.32,231.67z"/>
	</g>
	<g>
		<linearGradient id="SVGID_1_" gradientUnits="userSpaceOnUse" x1="211.8382" y1="388.3588" x2="926.1133" y2="-325.9163">
			<stop  offset="0.4866" style="stop-color:#1488CC"/>
			<stop  offset="0.9551" style="stop-color:#2B32B2"/>
		</linearGradient>
		<path class="st1" d="M145.68,191.1c3.45,5.07,2.89,11.13-1.48,15.5c-2.25,2.25-6.27,4.93-12.75,4.93c-1.48,0-3.03-0.14-4.72-0.42
			c-6.84-1.13-12.05-4.23-15.57-9.02l-43.69-64.75l-13.6,64.47c-1.55,5.99-6.06,9.51-11.91,9.51c-4.09,0-10.08-1.55-15.64-8.88
			c-5.43-7.19-5.5-13.6-4.58-17.76l11.69-54.89c0.66-3.12,2.86-5.68,5.84-6.81l35.9-18.7c8.54-4.52,20.52,2.47,40.84-5.93
			c23.34-9.92,26.65-17.15,28.06-29.66c0.33-2.91,0.13-5.9-0.94-8.63c-1.51-3.82-3.52-6.39-7.41-8.23
			c-15.63-7.41-38.34-4.89-50.42,1.58c-4.72,2.47-8.74,5.99-11.13,10.92c-5.14,10.64,5.64,19.17-8.31,28.54
			c-6.15,4.1-15.77,7.33-24.85,9.75c-0.82,0.22-1.57-0.52-1.39-1.35l15.04-70.27c0.35-2.96,1.83-5.57,4.09-7.4
			c2.25-1.9,4.93-2.89,7.89-2.89h65.04c6.98,0,13.25,1.06,18.67,3.1c5.78,2.18,10.5,5.28,14.09,9.23c3.38,3.8,6.06,8.24,7.96,13.25
			c1.97,5.07,2.89,10.57,2.89,16.35c-0.07,5.21-0.63,10.78-1.69,16.49c-3.8,17.62-12.47,31.14-25.72,40.38
			c-10.22,7.12-23.96,11.7-41.08,13.81L145.68,191.1z M199.12,166.6c-5.32,1.2-10.58,2.07-15.74,2.59c1.03,3.45,2.7,6.4,5.04,8.92
			c3.74,4.02,8.28,5.9,14.28,5.9c11.06,0,19.8-6.38,26.72-19.5c2.91-4.94,7.2-7.47,12.26-7.47c0.51,0,1.04,0.03,1.58,0.08
			c3.93,0.52,6.98,2.43,8.81,5.41c1.18,1.89,2.38,5.13,1.31,9.66c-0.08,0.32-0.17,0.63-0.28,0.94c-4.08,11-11.31,20.22-21.51,27.39
			c-10.22,7.18-22.25,10.82-35.75,10.82c-16.48,0-29.61-6.33-39.04-18.81c-9.3-12.31-12.16-27.3-8.51-44.55
			c2.64-12.02,7.69-22.79,15.01-32.07c7.32-9.27,16.01-16.4,25.81-21.17c9.81-4.78,20.11-7.21,30.62-7.21
			c4.61,0,8.93,0.44,12.83,1.31c4.24,0.95,7.73,2.27,10.69,4.05c2.82,1.69,5.35,3.72,7.49,6.04c2.41,2.61,4.15,5.51,5.16,8.62
			c0.83,2.54,1.39,5.21,1.67,7.94c0.32,3.11,0.09,6.17-0.68,9.1c-1.59,7.33-5.73,14.31-12.21,20.43
			c-5.99,5.64-13.15,10.26-21.28,13.74C215.68,162.05,207.51,164.69,199.12,166.6z M184.13,147.46c8.23-1.35,15.76-3.9,22.5-7.6
			c8.5-4.68,13.47-10.87,15.17-18.94c0.57-2.78,0.29-5.05-0.88-7.09c-0.38-0.64-0.93-1.61-3.97-1.61c-5.36,0-11.64,3.51-18.68,10.44
			C191.54,129.27,186.9,137.42,184.13,147.46z M318.45,175.43c-3,0-5.92,1.12-8.76,3.39c-4.84,3.97-9.44,5.98-13.68,5.98
			c-2.01,0-2.93-0.4-3.04-0.58c-0.66-1.07-0.74-3.09-0.23-5.59l14.35-66.94h29.71c2.65,0,5.21-0.95,7.38-2.74
			c2.25-1.85,3.65-4.26,4.07-6.97c0.49-2.64,0.01-5.32-1.36-7.6c-1.83-3.05-5.06-4.88-8.64-4.88h-26.42l2.35-10.99
			c0.99-5.79-0.6-11.6-4.72-17.27c-5.47-7.52-11.48-9.09-15.57-9.09c-5.88,0-10.42,3.53-11.91,9.5l-5.91,27.85h-4.61
			c-1.81,0-4.56,0.47-7.4,2.71c-2.98,2.35-4,5.1-4.31,7.13c-0.56,3.11,0.28,6.23,2.34,8.63c2.05,2.4,4.91,3.72,8.05,3.72h1.21
			l-13.38,62.66c-2.25,10.45-0.87,19.24,4.09,26.14c5.18,7.2,13.8,10.85,25.63,10.85c13.19,0,25.04-4.48,35.14-13.26
			c2.64-2.25,5.72-5.32,6.49-9.39c0.76-3.46-0.09-6.91-2.35-9.47C324.84,176.78,321.82,175.43,318.45,175.43z M424.63,109.57
			c2.4-2.11,4-4.83,4.59-7.78c0.81-3.8-0.28-7.59-2.96-10.4c-2.37-2.49-5.55-3.87-8.96-3.87c-10.27,0-20.51,4.03-30.41,11.99
			c-1.92,1.54-3.79,3.23-5.63,5.08c-0.82-2.68-2.18-5.34-4.1-7.97c-5.47-7.52-11.48-9.09-15.57-9.09c-5.67,0-10.07,3.61-11.51,9.62
			l-18.8,87.84c-0.98,5.75,0.54,11.52,4.51,17.17c5.36,7.6,11.39,9.19,15.51,9.19c5.89,0,10.42-3.53,11.9-9.46l4.36-20.08
			c4.21-19.68,11.65-36.52,22.08-50.06c9.44-12.26,18.36-18.73,25.81-18.73C418.91,113,422.09,111.81,424.63,109.57z M520.57,150.99
			c-3.43,16.54-11.92,30.85-25.26,42.54c-13.5,11.83-28.37,17.82-44.2,17.82c-16.56,0-29.59-6.45-38.7-19.17
			c-8.88-12.4-11.6-27.34-8.06-44.42c3.43-16.56,11.98-30.85,25.43-42.5c13.58-11.76,28.48-17.73,44.3-17.73
			c16.58,0,29.56,6.44,38.59,19.13C521.44,119,524.11,133.92,520.57,150.99z M483.75,121.51c-3.56-7.49-7.95-8.51-11.79-8.51
			c-6.24,0-12.41,3.42-18.85,10.47c-7.05,7.71-11.58,16.71-13.86,27.54c-2.17,10.32-1.53,19.18,1.9,26.31
			c3.69,7.68,8.32,8.67,11.94,8.67c6.05,0,12.31-3.55,18.61-10.56c6.93-7.7,11.58-17.02,13.82-27.71
			C487.7,137.38,487.1,128.57,483.75,121.51z M633.02,96.43c-5.58-7.36-11.64-8.9-15.74-8.9c-5.84,0-10.34,3.61-11.77,9.63
			c-6.3,29.72-14.25,52.85-23.62,68.75c-5.62,9.53-14.28,20.88-24,20.88h0c-1.59,0-2.29-0.26-2.39-0.26c-0.01,0-0.01,0-0.01,0
			c-0.28-0.51-0.81-2.02-0.08-5.53l14.32-67.11c0.99-5.8-0.6-11.61-4.71-17.26c-5.47-7.52-11.48-9.1-15.57-9.1
			c-6.08,0-10.72,3.61-12.18,9.65l-15.58,74.59c-2.12,10.25-0.54,19.37,4.7,27.13c3.82,5.67,11.27,12.44,25.04,12.44
			c18.86,0,36.82-9.55,53.38-28.39c15.89-18.07,26.94-41.2,32.83-68.74C638.53,110.05,638.46,103.58,633.02,96.43z M672.74,82.96
			c5.72,0,10.08-3.56,11.76-9.9l4.42-20.51c1.02-5.77-0.57-11.59-4.72-17.3c-5.45-7.49-11.46-9.07-15.55-9.07
			c-5.65,0-10.1,3.49-11.71,9.58l-4.19,20.77c-1,5.69,0.47,11.46,4.45,17.21C662.61,81.36,668.63,82.96,672.74,82.96z M674.43,96.62
			c-5.38-7.72-11.44-9.34-15.58-9.34c-6.03,0-10.67,3.59-12.19,9.64l-18.65,87.99c-0.71,4.02-0.46,10.3,4.72,17.3
			c5.49,7.55,11.49,9.14,15.55,9.14c5.98,0,10.52-3.58,11.9-9.5l18.63-87.78C679.61,110.02,679.49,103.69,674.43,96.62z
			 M747.44,184.54h-34.19l55.75-59.28c4.29-3.92,6.63-9.39,6.95-16.25c0.43-9.41-3.38-14.34-6.8-16.93
			c-2.33-1.69-5.13-2.57-8.12-2.57h-60.32c-7.06,0-12.33,4.03-13.73,10.44c-0.84,3.68,0.18,7.45,2.81,10.33
			c2.39,2.62,5.61,4.06,9.08,4.06h33.03L676,173.33c-4.31,3.93-6.65,9.46-6.96,16.46c-0.43,9.57,3.38,14.54,7.06,17.31
			c2.39,1.59,4.94,2.39,7.59,2.39h62.17c6.93,0,12.09-4.09,13.49-10.67c0.77-3.6-0.05-7.13-2.32-9.93
			C754.75,186.09,751.35,184.54,747.44,184.54z M883.03,150.99c-3.43,16.55-11.93,30.86-25.26,42.54
			c-13.5,11.83-28.37,17.82-44.2,17.82c-16.56,0-29.58-6.45-38.7-19.17c-8.89-12.4-11.6-27.35-8.06-44.42
			c3.43-16.56,11.98-30.86,25.43-42.5c13.58-11.76,28.48-17.72,44.3-17.72c16.57,0,29.55,6.44,38.58,19.13
			C883.9,119,886.56,133.92,883.03,150.99z M846.21,121.51c-3.56-7.49-7.95-8.51-11.79-8.51c-6.16,0-12.5,3.52-18.85,10.47
			c-7.05,7.71-11.58,16.71-13.86,27.54c-2.17,10.33-1.53,19.17,1.89,26.31c3.69,7.68,8.32,8.67,11.94,8.67
			c6.05,0,12.31-3.55,18.61-10.56c6.93-7.7,11.58-17.02,13.83-27.71C850.16,137.39,849.56,128.57,846.21,121.51z M976.57,91.4
			c-2.37-2.5-5.55-3.88-8.96-3.88c-10.27,0-20.51,4.03-30.41,11.99c-1.92,1.54-3.79,3.23-5.63,5.08c-0.82-2.68-2.18-5.34-4.09-7.97
			c-5.47-7.52-11.48-9.1-15.57-9.1c-5.68,0-10.07,3.61-11.51,9.62l-18.81,87.84c-0.98,5.75,0.54,11.52,4.51,17.16
			c5.35,7.6,11.39,9.2,15.51,9.2c5.88,0,10.42-3.53,11.9-9.46l4.36-20.09c4.21-19.67,11.64-36.51,22.08-50.06
			c9.44-12.26,18.37-18.73,25.81-18.73c3.45,0,6.63-1.19,9.16-3.44c2.4-2.11,4-4.83,4.59-7.75C980.32,98.01,979.25,94.2,976.57,91.4
			z"/>
	</g>
</g>
</svg>
